<?xml version="1.0" encoding="UTF-8" standalone="no"?>
<!-- Created with Inkscape (http://www.inkscape.org/) -->

<svg
   width="512"
   height="512"
   viewBox="0 0 135.46666 135.46667"
   version="1.1"
   id="svg5"
   inkscape:version="1.2.2 (732a01da63, 2022-12-09)"
   sodipodi:docname="icon.svg"
   xml:space="preserve"
   xmlns:inkscape="http://www.inkscape.org/namespaces/inkscape"
   xmlns:sodipodi="http://sodipodi.sourceforge.net/DTD/sodipodi-0.dtd"
   xmlns="http://www.w3.org/2000/svg"
   xmlns:svg="http://www.w3.org/2000/svg"><sodipodi:namedview
     id="namedview7"
     pagecolor="#ffffff"
     bordercolor="#000000"
     borderopacity="0.25"
     inkscape:showpageshadow="2"
     inkscape:pageopacity="0.0"
     inkscape:pagecheckerboard="0"
     inkscape:deskcolor="#d1d1d1"
     inkscape:document-units="px"
     showgrid="false"
     inkscape:zoom="0.5946522"
     inkscape:cx="-268.22401"
     inkscape:cy="171.52884"
     inkscape:window-width="1920"
     inkscape:window-height="1009"
     inkscape:window-x="-8"
     inkscape:window-y="-8"
     inkscape:window-maximized="1"
     inkscape:current-layer="layer1" /><defs
     id="defs2" /><g
     inkscape:label="icon"
     inkscape:groupmode="layer"
     id="layer1"><g
       style="fill:#000000"
       id="g4770"
       transform="matrix(4.0475841,0,0,4.0475841,18.314118,20.430786)"><g
         id="g4744"><rect
           fill="none"
           height="24"
           width="24"
           x="0"
           id="rect4742"
           y="0" /></g><g
         id="g4756"
         style="fill:#ffffff;fill-opacity:1"><g
           id="g4754"
           style="fill:#ffffff;fill-opacity:1"><polygon
             points="19.06,4.94 20,7 20.94,4.94 23,4 20.94,3.06 20,1 19.06,3.06 17,4 "
             id="polygon4746"
             style="fill:#ffffff;fill-opacity:1" /><polygon
             points="7.56,4.94 8.5,7 9.44,4.94 11.5,4 9.44,3.06 8.5,1 7.56,3.06 5.5,4 "
             id="polygon4748"
             style="fill:#ffffff;fill-opacity:1" /><polygon
             points="20.94,14.56 20,12.5 19.06,14.56 17,15.5 19.06,16.44 20,18.5 20.94,16.44 23,15.5 "
             id="polygon4750"
             style="fill:#ffffff;fill-opacity:1" /><path
             d="M 17.71,9.12 14.88,6.29 C 14.68,6.1 14.43,6 14.17,6 13.91,6 13.66,6.1 13.46,6.29 L 2.29,17.46 c -0.39,0.39 -0.39,1.02 0,1.41 l 2.83,2.83 c 0.2,0.2 0.45,0.3 0.71,0.3 0.26,0 0.51,-0.1 0.71,-0.29 L 17.71,10.54 c 0.39,-0.39 0.39,-1.03 0,-1.42 z M 14.17,8.42 15.58,9.83 14.41,11 13,9.59 Z M 5.83,19.59 4.42,18.18 11.59,11 13,12.41 Z"
             id="path4752"
             style="fill:#ffffff;fill-opacity:1" /></g></g><g
         id="g4768"
         style="fill:#b3e5fc;fill-opacity:1"><g
           id="g4766"
           style="fill:#b3e5fc;fill-opacity:1"><polygon
             points="19.06,4.94 20,7 20.94,4.94 23,4 20.94,3.06 20,1 19.06,3.06 17,4 "
             id="polygon4758"
             style="fill:#b3e5fc;fill-opacity:1" /><polygon
             points="7.56,4.94 8.5,7 9.44,4.94 11.5,4 9.44,3.06 8.5,1 7.56,3.06 5.5,4 "
             id="polygon4760"
             style="fill:#b3e5fc;fill-opacity:1" /><polygon
             points="20.94,14.56 20,12.5 19.06,14.56 17,15.5 19.06,16.44 20,18.5 20.94,16.44 23,15.5 "
             id="polygon4762"
             style="fill:#b3e5fc;fill-opacity:1" /><path
             d="M 17.71,9.12 14.88,6.29 C 14.68,6.1 14.43,6 14.17,6 13.91,6 13.66,6.1 13.46,6.29 L 2.29,17.46 c -0.39,0.39 -0.39,1.02 0,1.41 l 2.83,2.83 c 0.2,0.2 0.45,0.3 0.71,0.3 0.26,0 0.51,-0.1 0.71,-0.29 L 17.71,10.54 c 0.39,-0.39 0.39,-1.03 0,-1.42 z M 14.17,8.42 15.58,9.83 14.41,11 13,9.59 Z M 5.83,19.59 4.42,18.18 11.59,11 13,12.41 Z"
             id="path4764"
             style="fill:#b3e5fc;fill-opacity:1" /></g></g></g><g
       style="fill:#000000"
       id="g3625"
       transform="matrix(4.047584,0,0,4.047584,16.835521,18.952189)"><g
         id="g3597"><rect
           fill="none"
           height="24"
           width="24"
           x="0"
           id="rect3595"
           y="0" /></g><g
         id="g3609"
         style="fill:#ffffff;fill-opacity:1"><g
           id="g3607"
           style="fill:#ffffff;fill-opacity:1"><polygon
             points="19.06,3.06 17,4 19.06,4.94 20,7 20.94,4.94 23,4 20.94,3.06 20,1 "
             id="polygon3599"
             style="fill:#ffffff;fill-opacity:1" /><polygon
             points="7.56,3.06 5.5,4 7.56,4.94 8.5,7 9.44,4.94 11.5,4 9.44,3.06 8.5,1 "
             id="polygon3601"
             style="fill:#ffffff;fill-opacity:1" /><polygon
             points="20.94,16.44 23,15.5 20.94,14.56 20,12.5 19.06,14.56 17,15.5 19.06,16.44 20,18.5 "
             id="polygon3603"
             style="fill:#ffffff;fill-opacity:1" /><path
             d="M 17.71,9.12 14.88,6.29 C 14.68,6.1 14.43,6 14.17,6 13.91,6 13.66,6.1 13.46,6.29 L 2.29,17.46 c -0.39,0.39 -0.39,1.02 0,1.41 l 2.83,2.83 c 0.2,0.2 0.45,0.3 0.71,0.3 0.26,0 0.51,-0.1 0.71,-0.29 L 17.71,10.54 c 0.39,-0.39 0.39,-1.03 0,-1.42 z M 14.17,8.42 15.58,9.83 14.41,11 13,9.59 Z M 5.83,19.59 4.42,18.18 11.59,11 13,12.41 Z"
             id="path3605"
             style="fill:#ffffff;fill-opacity:1" /></g></g><g
         id="g4740"
         style="fill:#ffffff;fill-opacity:1"><g
           id="g4738"
           style="fill:#0088ff;fill-opacity:1"><polygon
             points="19.06,3.06 17,4 19.06,4.94 20,7 20.94,4.94 23,4 20.94,3.06 20,1 "
             id="polygon4730"
             style="fill:#0088ff;fill-opacity:1" /><polygon
             points="7.56,3.06 5.5,4 7.56,4.94 8.5,7 9.44,4.94 11.5,4 9.44,3.06 8.5,1 "
             id="polygon4732"
             style="fill:#0088ff;fill-opacity:1" /><polygon
             points="20.94,16.44 23,15.5 20.94,14.56 20,12.5 19.06,14.56 17,15.5 19.06,16.44 20,18.5 "
             id="polygon4734"
             style="fill:#0088ff;fill-opacity:1" /><path
             d="M 17.71,9.12 14.88,6.29 C 14.68,6.1 14.43,6 14.17,6 13.91,6 13.66,6.1 13.46,6.29 L 2.29,17.46 c -0.39,0.39 -0.39,1.02 0,1.41 l 2.83,2.83 c 0.2,0.2 0.45,0.3 0.71,0.3 0.26,0 0.51,-0.1 0.71,-0.29 L 17.71,10.54 c 0.39,-0.39 0.39,-1.03 0,-1.42 z M 14.17,8.42 15.58,9.83 14.41,11 13,9.59 Z M 5.83,19.59 4.42,18.18 11.59,11 13,12.41 Z"
             id="path4736"
             style="fill:#0088ff;fill-opacity:1" /></g></g></g></g></svg>
